<?xml version="1.0" standalone="no"?>
<!DOCTYPE svg PUBLIC "-//W3C//DTD SVG 1.1//EN"
"http://www.w3.org/Graphics/SVG/1.1/DTD/svg11.dtd">

<svg id="svg" width="744.0945" height="1052.362"> 	
<circle cx="372.047235" cy="265.748025" r="44.2913375" style="stroke:#b7b7b7; stroke-width:1; stroke-dasharray: 10 5; fill:none"/>
<circle cx="372.047235" cy="265.748025" r="88.582675" style="stroke:#6c6b6b; stroke-width:2; fill:none"/>
<circle cx="372.047235" cy="265.748025" r="132.8740125" style="stroke:#b7b7b7; stroke-width:1; stroke-dasharray: 10 5; fill:none"/>
<circle cx="372.047235" cy="265.748025" r="177.16535" style="stroke:#6c6b6b; stroke-width:2; fill:none"/>
<path d="M372.0472,265.748 C341.1472,107.628,402.9472,107.628,372.0472,265.748" transform="rotate(0 372.0472 265.748)" fill="#4f74b1" stroke = "black" stroke-width = "0.5px" />
<path d="M372.0472,265.748 C346.1472,166.628,397.9472,166.628,372.0472,265.748" transform="rotate(30 372.0472 265.748)" fill="#4f74b1" stroke = "black" stroke-width = "0.5px" />
<path d="M372.0472,265.748 C334.9472,34.468,409.1472,34.468,372.0472,265.748" transform="rotate(60 372.0472 265.748)" fill="#4f74b1" stroke = "black" stroke-width = "0.5px" />
<path d="M372.0472,265.748 C348.1472,190.228,395.9472,190.228,372.0472,265.748" transform="rotate(90 372.0472 265.748)" fill="#4f74b1" stroke = "black" stroke-width = "0.5px" />
<path d="M372.0472,265.748 C345.5472,159.548,398.5472,159.548,372.0472,265.748" transform="rotate(120 372.0472 265.748)" fill="#c74957" stroke = "black" stroke-width = "0.5px" />
<path d="M372.0472,265.748 C336.9472,58.068,407.1472,58.068,372.0472,265.748" transform="rotate(150 372.0472 265.748)" fill="#c74957" stroke = "black" stroke-width = "0.5px" />
<path d="M372.0472,265.748 C347.5472,183.148,396.5472,183.148,372.0472,265.748" transform="rotate(180 372.0472 265.748)" fill="#c74957" stroke = "black" stroke-width = "0.5px" />
<path d="M372.0472,265.748 C341.3472,109.988,402.7472,109.988,372.0472,265.748" transform="rotate(210 372.0472 265.748)" fill="#80a253" stroke = "black" stroke-width = "0.5px" />
<path d="M372.0472,265.748 C345.9472,164.268,398.1472,164.268,372.0472,265.748" transform="rotate(240 372.0472 265.748)" fill="#80a253" stroke = "black" stroke-width = "0.5px" />
<path d="M372.0472,265.748 C338.9472,81.668,405.1472,81.668,372.0472,265.748" transform="rotate(270 372.0472 265.748)" fill="#eaa94c" stroke = "black" stroke-width = "0.5px" />
<path d="M372.0472,265.748 C345.9472,164.268,398.1472,164.268,372.0472,265.748" transform="rotate(300 372.0472 265.748)" fill="#eaa94c" stroke = "black" stroke-width = "0.5px" />
<path d="M372.0472,265.748 C343.5472,135.948,400.5472,135.948,372.0472,265.748" transform="rotate(330 372.0472 265.748)" fill="#eaa94c" stroke = "black" stroke-width = "0.5px" />
<text x="357.0472" y="82.58265" font-size="12" transform="rotate(0 372.0472 265.748)" fill="#4f74b1" >Aries</text>
<text x="354.0472" y="82.58265" font-size="12" transform="rotate(30 372.0472 265.748)" fill="#4f74b1" >Taurus</text>
<text x="354.0472" y="82.58265" font-size="12" transform="rotate(60 372.0472 265.748)" fill="#4f74b1" >Gemini</text>
<text x="354.0472" y="82.58265" font-size="12" transform="rotate(90 372.0472 265.748)" fill="#4f74b1" >Cancer</text>
<text x="363.0472" y="82.58265" font-size="12" transform="rotate(120 372.0472 265.748)" fill="#c74957" >Leo</text>
<text x="357.0472" y="82.58265" font-size="12" transform="rotate(150 372.0472 265.748)" fill="#c74957" >Virgo</text>
<text x="357.0472" y="82.58265" font-size="12" transform="rotate(180 372.0472 265.748)" fill="#c74957" >Libra</text>
<text x="351.0472" y="82.58265" font-size="12" transform="rotate(210 372.0472 265.748)" fill="#80a253" >Scorpio</text>
<text x="339.0472" y="82.58265" font-size="12" transform="rotate(240 372.0472 265.748)" fill="#80a253" >Sagittarius</text>
<text x="345.0472" y="82.58265" font-size="12" transform="rotate(270 372.0472 265.748)" fill="#eaa94c" >Capricorn</text>
<text x="348.0472" y="82.58265" font-size="12" transform="rotate(300 372.0472 265.748)" fill="#eaa94c" >Aquarius</text>
<text x="354.0472" y="82.58265" font-size="12" transform="rotate(330 372.0472 265.748)" fill="#eaa94c" >Pisces</text>
</svg>
